<?xml version="1.0" encoding="UTF-8"?>
<svg width="124px" height="33px" viewBox="0 0 124 33" version="1.1" xmlns="http://www.w3.org/2000/svg" xmlns:xlink="http://www.w3.org/1999/xlink">
    <!-- Generator: Sketch 53.1 (72631) - https://sketchapp.com -->
    <title>logo</title>
    <desc>Created with Sketch.</desc>
    <g id="Page-1" stroke="none" stroke-width="1" fill="none" fill-rule="evenodd">
        <g id="inside" transform="translate(-1259.000000, -34.000000)">
            <g id="NavBar">
                <g id="logo" transform="translate(1258.972150, 34.351961)">
                    <g transform="translate(62.940987, 0.000000)">
                        <path d="M15.2485363,11.2775902 C13.073992,11.2832715 11.2531129,13.0551487 11.3127673,15.1650675 C11.373842,17.3609169 13.0008443,19.0049633 15.2336227,19.0134854 C17.599203,19.0227176 19.1850154,17.216042 19.1928273,15.1018622 C19.199929,13.0047266 17.3982246,11.2719088 15.2485363,11.2775902 M10.6430758,30.8215024 C10.7382388,29.384826 10.096244,28.4907204 8.95854967,28.3955575 C7.8272469,28.2996844 7.11423499,29.0304506 6.90473447,30.5452458 C6.45448591,30.5132881 6.00139667,30.47991 5.54688708,30.4500829 C4.86441253,30.4053421 4.17483627,30.4074726 3.5001736,30.3087588 C2.39798785,30.1454194 1.63952497,29.4274363 0.979775902,28.5915647 C0.425132171,27.8884952 0.155267103,27.1229306 0.159528131,26.1855046 C0.191485836,18.6122386 0.18225361,11.0389726 0.168760357,3.46570662 C0.167340014,2.71008443 0.425132171,2.09649649 0.932194429,1.57665115 C2.06633788,0.411260159 3.37944449,-0.254880455 5.07178253,0.0916831058 C5.57032273,0.193947763 6.0944291,0.160569715 6.60220153,0.227325811 C6.73003235,0.24436992 6.90189379,0.386404166 6.94379389,0.508553618 C7.22715221,1.33377259 7.81588416,1.77904995 8.65814724,1.81881954 C9.45780005,1.85645861 10.0635761,1.47793735 10.4420974,0.751432179 C10.4996212,0.639935296 10.6459165,0.489378995 10.7424998,0.494350193 C12.1770457,0.573889371 13.6094611,0.671893001 15.0418764,0.775578 C16.201586,0.858668034 17.3598753,0.960932692 18.5181646,1.04615324 C20.3937268,1.18392646 22.2685789,1.35436755 24.1455614,1.43532707 C25.5382072,1.49569163 26.8094137,1.84793656 27.9123096,2.69375049 C29.5911544,3.9820011 30.5491754,5.64451195 30.543494,7.82260712 C30.5300008,14.0422868 30.5342618,20.2612562 30.543494,26.4809358 C30.5470449,28.949491 28.6693522,31.3164918 26.2135801,31.6509824 C24.960838,31.8221337 23.6612247,31.6886215 22.3843368,31.636779 C21.1727847,31.5877772 19.9640732,31.4642074 18.7539415,31.375436 C16.9635998,31.2440543 15.1732581,31.1112523 13.3829164,30.9862621 C12.4817091,30.9230569 11.5790815,30.8768958 10.6430758,30.8215024" id="Fill-1" fill="#FFFFFF"></path>
                        <path d="M41.8952261,15.1017202 C41.9023278,17.2166101 43.4888503,19.0225756 45.8544307,19.0133433 C48.087209,19.0048213 49.7135011,17.361485 49.775286,15.1649254 C49.8349404,13.0550067 48.012641,11.2831295 45.8388069,11.2774481 C43.6891186,11.2717667 41.8874142,13.0045845 41.8952261,15.1017202 M47.7051369,30.9861201 C45.9140851,31.1111102 44.1244536,31.2439123 42.3341119,31.3752939 C41.1239801,31.4640653 39.9152687,31.5876351 38.7030064,31.6366369 C37.4268287,31.6884794 36.1265052,31.8219916 34.8737631,31.6515505 C32.417991,31.3163497 30.5402983,28.949349 30.5445593,26.4807938 C30.5530814,20.2618244 30.5580526,14.0421447 30.5438491,7.82246508 C30.5388779,5.64508009 31.4961887,3.98185907 33.1757437,2.69360846 C34.2772193,1.84779452 35.549136,1.49554959 36.9410716,1.43518504 C38.8194745,1.35493569 40.6943265,1.18378442 42.5691786,1.0460112 C43.728178,0.960790657 44.8864673,0.858526 46.0454667,0.775435966 C47.4778821,0.672461138 48.9110077,0.573747337 50.3441332,0.49491833 C50.4421368,0.48923696 50.5877219,0.639793261 50.6452458,0.751290144 C51.0237671,1.47779531 51.6302533,1.85702675 52.4299061,1.8186775 C53.2721692,1.77890791 53.860191,1.33363055 54.1442594,0.508411584 C54.1861596,0.386262132 54.358021,0.244227886 54.4858518,0.227893948 C54.9922039,0.160427681 55.5177306,0.193805729 56.0155606,0.0915410716 C57.7086089,-0.255022489 59.0210053,0.411118125 60.1558589,1.57650911 C60.662211,2.09706463 60.9207133,2.7099424 60.919293,3.46556459 C60.9050896,11.0388306 60.8965675,18.6120966 60.9285252,26.1853626 C60.9327862,27.1227886 60.6629212,27.8883532 60.1075673,28.5914227 C59.4485284,29.4272942 58.6893553,30.1459875 57.5871696,30.3086167 C56.9125069,30.4080407 56.2236408,30.4052 55.5411663,30.4499408 C55.0866567,30.479768 54.6335674,30.5131461 54.1833189,30.5451038 C53.9738184,29.0303085 53.2608064,28.2995423 52.1295037,28.3954155 C50.9918094,28.4912886 50.3491044,29.384684 50.4449775,30.8213604 C49.5082617,30.8767537 48.605634,30.9229149 47.7051369,30.9861201" id="Fill-16" fill="#FCB731"></path>
                    </g>
                    <g id="Group-11" transform="translate(0.000000, 4.500000)" fill="#FFFFFF">
                        <path d="M7.75773156,12.9242733 C7.78511236,12.921052 7.81303004,12.9178308 7.84041083,12.9146095 C7.73625643,11.9927893 7.70189621,11.0559365 7.51184126,10.1518333 C7.2004518,8.66843836 6.26682029,7.93506249 4.75550765,7.84003502 C3.20178161,7.74232315 2.05125124,8.52455496 1.65879314,10.0294251 C1.50041402,10.6355608 1.44028364,11.2792779 1.42202977,11.9074256 C1.3742476,13.5411466 2.19191337,14.5816169 3.81650736,14.8087164 C4.88543222,14.9579686 5.98227475,14.9268297 7.06676908,14.938641 C7.49949306,14.9434729 7.74484648,14.6417472 7.75504717,14.205802 C7.76578474,13.7789837 7.75773156,13.3516285 7.75773156,12.9242733 M49.1993739,7.20007599 C49.4232522,8.47194087 49.649278,9.6906548 49.8495336,10.91259 C49.9816057,11.7227395 49.9896589,12.532889 49.7711494,13.3382065 C49.3539949,14.8758262 48.1159533,16.3624425 45.9442803,16.2776157 C44.8839455,16.2368129 43.8209263,16.2636568 42.7616652,16.2088952 C41.990171,16.1691662 41.3153149,15.8357648 40.7322649,15.3262672 C40.2431687,14.8983751 39.9967415,14.8887113 39.4727482,15.2881488 C38.7243398,15.8593874 37.8497649,16.117089 36.939756,16.1686294 C35.7280215,16.2373498 34.5093076,16.2394973 33.2954256,16.2051371 C32.5443327,16.1841988 31.8657184,15.870125 31.2606565,15.4159259 C30.8107524,15.0782294 30.5643252,15.0744712 30.1128105,15.4137784 C29.2285718,16.07736 28.1945441,16.2475505 27.1374305,16.2636568 C25.2336598,16.2915745 23.3288153,16.2878164 21.4250445,16.2663412 C20.4736961,16.2556037 19.5835517,15.9957545 18.8201106,15.393377 C18.4995942,15.1399704 18.1447176,15.0766187 17.8182956,15.331636 C16.8535251,16.086487 15.723933,16.2523824 14.5578332,16.2684887 C13.0427624,16.2888901 11.5271547,16.2727838 10.011547,16.2743944 C9.39628439,16.2754682 9.17025859,16.4719657 9.11442324,17.0893758 C8.8792705,19.6953835 7.43023575,21.290986 4.99066038,22.0673122 C3.88093276,22.4200413 2.73577117,22.5311751 1.57933514,22.5488921 C1.1256729,22.5558715 0.868508159,22.3137393 0.860454984,21.9105437 C0.852401808,21.507348 1.1009765,21.2770272 1.5455118,21.2287081 C2.48290146,21.1261643 3.43586058,21.0842878 4.3517751,20.880274 C6.33715136,20.4378863 7.52955825,19.05274 7.69706431,17.1403792 C7.74538336,16.5879314 7.47318602,16.293722 6.91644314,16.2722469 C5.80510489,16.2298335 4.6771234,16.2872795 3.58833404,16.1058146 C1.80643469,15.8094577 0.468533764,14.8489823 0.123857843,12.9613179 C-0.177867808,11.3093431 0.0546005315,9.68635978 1.00809654,8.2700746 C1.94494932,6.87794896 3.38270962,6.42697112 4.98421784,6.5665595 C7.9257745,6.82265048 8.85350034,8.86708336 9.04248153,10.8830617 C9.14073028,11.936954 9.10690694,13.0037313 9.12623456,14.064603 C9.13750901,14.6846975 9.37480925,14.9542105 9.99275627,14.9542105 C11.6629849,14.9536736 13.3337504,14.9407885 15.004516,14.9198502 C15.2997991,14.9160921 15.5988403,14.8693837 15.8892915,14.8065689 C16.9587533,14.5746374 17.5439507,13.8713268 17.5600571,12.7744842 C17.5767003,11.6604616 17.5664996,10.5464389 17.5654259,9.4324163 C17.564889,9.07270778 17.6872972,8.79245727 18.0620384,8.6974298 C18.5473764,8.57394777 18.9221175,8.85312453 18.9280232,9.35617957 C18.9392976,10.3794698 18.9317813,11.40276 18.9328551,12.4260502 C18.9344657,13.9615223 19.7113287,14.8828056 21.2435797,14.9139446 C23.5070589,14.9595792 25.775907,14.9466942 28.0361649,14.8296547 C29.3547383,14.7614711 29.9716115,13.9421947 29.9850335,12.6182526 C29.995771,11.5557703 29.9855704,10.4938249 29.9887916,9.43134254 C29.9904023,8.90573861 30.1928054,8.67863905 30.6529102,8.67165963 C31.1344901,8.66414334 31.3481677,8.89446416 31.3492414,9.43617445 C31.3519258,10.4852348 31.3476308,11.5342952 31.3508521,12.5833555 C31.3551471,13.8928019 32.150264,14.8323391 33.4650791,14.9005226 C34.6499697,14.9622636 35.8434504,14.8838794 37.0315622,14.8398554 C37.3091284,14.8296547 37.5883051,14.7244265 37.8567443,14.6331572 C38.8607069,14.2922394 39.4034909,13.59215 39.4528837,12.5253727 C39.4641582,12.2923674 39.4668426,12.0593622 39.4668426,11.8258201 C39.4673795,8.17289962 39.4684532,4.52051598 39.4641582,0.867595466 C39.4641582,0.556206004 39.5360999,0.3054838 39.8335305,0.160526636 C40.1068016,0.0268439191 40.3945684,0.0402658787 40.5867709,0.256090988 C40.7252855,0.411248841 40.8213867,0.662507924 40.8235343,0.871890493 C40.8417881,2.59419634 40.8331981,4.31703907 40.8342718,6.0398818 C40.8348087,8.17719464 40.8267555,10.3145075 40.8417881,12.4518203 C40.8503782,13.6657023 41.5950285,14.6283253 42.6972398,14.8774369 C42.9726584,14.9391779 43.2625728,14.9515261 43.5460445,14.9558211 C44.2837154,14.9665587 45.0224601,14.9601161 45.7606679,14.9590424 C47.4819,14.9579686 48.5953857,13.9169614 48.5508248,12.1903606 C48.523444,11.1117719 48.2899019,10.0380151 48.1385022,8.96372147 C48.104142,8.72158932 48.0252209,8.48589971 47.971533,8.24591508 C47.8748949,7.80513792 48.0150202,7.55387884 48.4472073,7.41160607 C48.6549792,7.34342252 48.8675831,7.29241907 49.1993739,7.20007599" id="Fill-3"></path>
                        <path d="M30.9530789,21.8330721 C30.5471988,21.829314 29.8272449,21.1410359 29.8208024,20.7496515 C29.813823,20.3561197 30.5219655,19.6565672 30.93053,19.6533459 C31.3562746,19.6506615 32.0853554,20.3480665 32.082671,20.7560941 C32.0799866,21.1571422 31.3670121,21.8368303 30.9530789,21.8330721" id="Fill-6"></path>
                        <path d="M28.1460103,19.6341793 C28.5760498,19.6433063 29.2911719,20.3482276 29.2788236,20.7498126 C29.2664754,21.1471026 28.5492059,21.8160531 28.1401046,21.811758 C27.7208026,21.8063893 26.9970905,21.0928779 27.008365,20.695051 C27.0191025,20.3009823 27.7433515,19.6255893 28.1460103,19.6341793" id="Fill-8"></path>
                        <path d="M19.3483453,4.76254075 C18.9231376,4.76039324 18.232712,4.08392648 18.2343226,3.67160388 C18.2359333,3.24854372 18.8828717,2.61932225 19.3215014,2.61395347 C19.7794586,2.60858468 20.4816955,3.28344081 20.4661261,3.71294352 C20.4521672,4.10862289 19.7531516,4.76522515 19.3483453,4.76254075" id="Fill-10"></path>
                        <path d="M17.6753249,3.65157832 C17.6849887,4.07088033 17.0112063,4.7274826 16.5688185,4.72909323 C16.1360945,4.73016699 15.4505008,4.08108102 15.4451321,3.66392652 C15.4392264,3.23496069 16.1049556,2.57835843 16.5457327,2.57943219 C16.9698667,2.57996907 17.665661,3.24086636 17.6753249,3.65157832" id="Fill-12"></path>
                        <path d="M48.4503749,20.4772394 C48.4433955,20.8648656 47.7798138,21.4865708 47.3905769,21.4704645 C46.9943607,21.4527475 46.3613811,20.8143991 46.3656761,20.4358998 C46.370508,20.0353885 47.0174465,19.4249578 47.4184946,19.4432117 C47.8050471,19.4603918 48.4568174,20.1137728 48.4503749,20.4772394" id="Fill-14"></path>
                    </g>
                </g>
            </g>
        </g>
    </g>
</svg>